#!OML:ASF F:\VICON\USERDATA\INSTALL\rory3\rory3.ASF
:FULLY-SPECIFIED
:DEGREES
426
root 4.61775 16.365 2.31966 13.9395 -9.83417 -2.68478
lowerback 6.2865 -0.681671 1.12431
upperback 1.48714 -0.841135 -0.213778
thorax -2.01105 -0.425137 -0.784332
lowerneck -14.088 0.0832407 -0.495097
upperneck 39.6677 0.712722 -1.54612
head 16.699 -0.0734243 -0.495576
rclavicle 9.54166e-015 2.26615e-014
rhumerus -36.8633 29.3208 -73.1496
rradius 95.6779
rwrist -20.1357
rhand -6.33308 -42.6438
rfingers 7.12502
rthumb 19.5121 -71.6847
lclavicle 9.54166e-015 2.26615e-014
lhumerus -22.3349 -42.3862 68.5446
lradius 83.9202
lwrist 47.1783
lhand -21.3063 -28.5952
lfingers 7.12502
lthumb 5.07863 1.32397
rfemur -64.1755 5.73397 15.4216
rtibia 34.347
rfoot 38.9531 -1.47077
rtoes 10.6009
lfemur -40.5734 -0.154077 -27.1122
ltibia 51.4854
lfoot -22.341 5.97073
ltoes 11.164
427
root 4.62048 16.3739 2.31713 13.9618 -9.62397 -2.64846
lowerback 6.32013 -0.695288 1.25521
upperback 1.46179 -0.850963 -0.249529
thorax -2.0585 -0.431007 -0.893233
lowerneck -13.9647 0.0241965 -0.519458
upperneck 39.7227 0.622528 -1.52476
head 16.6964 -0.110362 -0.497822
rclavicle 7.15625e-015 4.77083e-015
rhumerus -37.4344 29.2295 -73.3485
rradius 95.5379
rwrist -19.7305
rhand -6.5232 -42.1275
rfingers 7.12502
rthumb 19.3293 -71.1869
lclavicle 7.15625e-015 4.77083e-015
lhumerus -22.917 -42.8212 68.8758
lradius 83.8427
lwrist 46.8876
lhand -21.2749 -28.5108
lfingers 7.12502
lthumb 5.10895 1.40766
rfemur -64.1365 5.44713 15.5303
rtibia 34.3312
rfoot 38.8897 -1.04474
rtoes 10.1165
lfemur -40.6968 -0.352282 -27.1051
ltibia 51.5452
lfoot -22.3781 5.85815
ltoes 12.2298
428
root 4.62163 16.3719 2.31559 14.112 -9.41795 -2.6112
lowerback 6.32721 -0.717163 1.35745
upperback 1.3214 -0.872609 -0.262366
thorax -2.20922 -0.443923 -0.960999
lowerneck -13.6676 -0.00450005 -0.561945
upperneck 39.765 0.571918 -1.48261
head 16.6433 -0.1308 -0.479946
rclavicle -1.74931e-014 -1.19271e-014
rhumerus -38.0896 29.248 -73.6277
rradius 95.34
rwrist -19.5304
rhand -6.989 -41.5477
rfingers 7.12502
rthumb 18.8814 -70.6513
lclavicle -1.74931e-014 -1.19271e-014
lhumerus -23.6808 -43.2907 69.3344
lradius 83.7728
lwrist 46.742
lhand -21.0188 -28.4212
lfingers 7.12502
lthumb 5.35622 1.49109
rfemur -64.2934 5.1594 15.6379
rtibia 34.3998
rfoot 38.8409 -0.294125
rtoes 8.85022
lfemur -40.8255 -0.482504 -27.1776
ltibia 51.5725
lfoot -22.3385 6.1373
ltoes 12.0141
429
root 4.61942 16.3655 2.31173 14.2414 -9.26633 -2.56742
lowerback 6.49556 -0.740354 1.35475
upperback 1.22489 -0.8999 -0.239014
thorax -2.40286 -0.459117 -0.93046
lowerneck -13.5556 -0.0159442 -0.689306
upperneck 39.671 0.566297 -1.41169
head 16.5637 -0.140688 -0.424823
rclavicle -1.78906e-015 -1.94809e-014
rhumerus -38.6147 29.2761 -73.7937
rradius 95.2389
rwrist -19.6711
rhand -7.04015 -41.9569
rfingers 7.12502
rthumb 18.8322 -71.0653
lclavicle -1.78906e-015 -1.94809e-014
lhumerus -24.2323 -43.644 69.648
lradius 83.7084
lwrist 46.7309
lhand -21.1122 -28.6593
lfingers 7.12502
lthumb 5.26605 1.25531
rfemur -64.5196 5.07651 15.5858
rtibia 34.5451
rfoot 38.8167 -0.133701
rtoes 8.35559
lfemur -40.9644 -0.591928 -27.2254
ltibia 51.6139
lfoot -22.287 6.40542
ltoes 11.0992
430
root 4.61554 16.3577 2.30489 14.3088 -9.12843 -2.56646
lowerback 6.80246 -0.752977 1.34184
upperback 1.22496 -0.911707 -0.190047
thorax -2.57331 -0.465762 -0.867987
lowerneck -13.8816 -0.0444439 -0.756331
upperneck 39.6817 0.558742 -1.42336
head 16.6519 -0.155105 -0.419821
rclavicle 1.82882e-014 1.19271e-015
rhumerus -38.9515 29.2788 -73.833
rradius 95.1704
rwrist -19.8708
rhand -6.90328 -42.5867
rfingers 7.12502
rthumb 18.9638 -71.6823
lclavicle 1.82882e-014 1.19271e-015
lhumerus -24.521 -43.9643 69.8261
lradius 83.5961
lwrist 46.6592
lhand -21.3097 -28.7591
lfingers 7.12502
lthumb 5.07534 1.16016
rfemur -64.7025 5.09803 15.4887
rtibia 34.6806
rfoot 38.775 -0.575616
rtoes 8.46524
lfemur -41.132 -0.733667 -27.1775
ltibia 51.6977
lfoot -22.2235 6.4573
ltoes 10.9019
431
root 4.6109 16.3451 2.30211 14.3903 -9.07477 -2.48725
lowerback 6.9478 -0.727879 1.25821
upperback 1.2434 -0.882604 -0.194343
thorax -2.63341 -0.450866 -0.82647
lowerneck -14.1671 -0.0617006 -0.720007
upperneck 39.7397 0.549299 -1.47211
head 16.7561 -0.160186 -0.45086
rclavicle 1.39149e-015 -9.93923e-015
rhumerus -39.3143 29.2715 -73.9585
rradius 95.0209
rwrist -19.9517
rhand -7.14762 -42.4405
rfingers 7.12502
rthumb 18.7288 -71.5589
lclavicle 1.39149e-015 -9.93923e-015
lhumerus -24.835 -44.2952 70.0048
lradius 83.4514
lwrist 46.4914
lhand -21.1058 -28.8111
lfingers 7.12502
lthumb 5.27217 1.10329
rfemur -64.9019 5.13097 15.3146
rtibia 34.7852
rfoot 38.6909 -1.04928
rtoes 8.83286
lfemur -41.3313 -0.881877 -27.2266
ltibia 51.8073
lfoot -22.1585 6.56079
ltoes 10.7091
432
root 4.60764 16.3414 2.2969 14.4733 -9.112 -2.40847
lowerback 7.08538 -0.718223 1.1175
upperback 1.19637 -0.87789 -0.183998
thorax -2.75631 -0.448105 -0.735246
lowerneck -14.0962 -0.0155327 -0.695001
upperneck 39.6655 0.643892 -1.55487
head 16.6994 -0.128065 -0.474224
rclavicle -8.34896e-015 1.66979e-014
rhumerus -39.7942 29.4505 -74.1846
rradius 94.8822
rwrist -19.975
rhand -7.34324 -42.3551
rfingers 7.12502
rthumb 18.5407 -71.4915
lclavicle -8.34896e-015 1.66979e-014
lhumerus -25.4649 -44.4465 70.3646
lradius 83.3377
lwrist 46.2006
lhand -20.9947 -28.9169
lfingers 7.12502
lthumb 5.37947 0.994848
rfemur -65.0644 5.24428 15.1188
rtibia 34.8448
rfoot 38.6438 -1.43457
rtoes 9.39631
lfemur -41.5045 -1.03029 -27.2726
ltibia 51.873
lfoot -22.0882 6.75373
ltoes 10.7945
433
root 4.60347 16.3365 2.2893 14.5451 -9.12885 -2.41918
lowerback 7.22689 -0.722983 1.06195
upperback 1.16593 -0.88591 -0.161371
thorax -2.86564 -0.452106 -0.678034
lowerneck -13.9412 0.0289566 -0.699892
upperneck 39.5547 0.728386 -1.60184
head 16.6014 -0.0992761 -0.477494
rclavicle -5.56597e-015 9.54166e-015
rhumerus -40.272 29.6035 -74.4192
rradius 94.8614
rwrist -20.0492
rhand -7.3962 -42.6542
rfingers 7.12502
rthumb 18.4897 -71.7955
lclavicle -5.56597e-015 9.54166e-015
lhumerus -26.0041 -44.5884 70.6145
lradius 83.2008
lwrist 45.9512
lhand -20.9389 -28.9199
lfingers 7.12502
lthumb 5.43333 0.990486
rfemur -65.2173 5.41991 14.9746
rtibia 34.9314
rfoot 38.6553 -1.64922
rtoes 9.5306
lfemur -41.6504 -1.20265 -27.1969
ltibia 51.9421
lfoot -22.0724 6.93485
ltoes 10.9656
434
root 4.60154 16.3382 2.28314 14.6195 -9.06455 -2.30509
lowerback 7.15979 -0.719239 1.00468
upperback 1.2721 -0.888816 -0.235355
thorax -2.719 -0.452227 -0.723457
lowerneck -13.9729 0.00590339 -0.671887
upperneck 39.3918 0.66877 -1.56026
head 16.521 -0.111659 -0.472382
rclavicle -2.22639e-014 -5.56597e-015
rhumerus -40.5591 29.5122 -74.5934
rradius 94.8094
rwrist -20.0181
rhand -7.4335 -42.7151
rfingers 7.12502
rthumb 18.4539 -71.8598
lclavicle -2.22639e-014 -5.56597e-015
lhumerus -26.0505 -44.8753 70.4856
lradius 82.9868
lwrist 45.7181
lhand -20.4001 -29.1604
lfingers 7.12502
lthumb 5.95355 0.735974
rfemur -65.3401 5.43207 14.7552
rtibia 34.989
rfoot 38.6579 -1.55222
rtoes 9.13905
lfemur -41.7587 -1.43426 -27.2594
ltibia 51.9974
lfoot -22.1043 6.94054
ltoes 11.6782
435
root 4.60198 16.3356 2.28025 14.7398 -8.96887 -2.26814
lowerback 7.0766 -0.725379 1.0486
upperback 1.43869 -0.89642 -0.274936
thorax -2.50223 -0.454807 -0.790417
lowerneck -14.2743 -0.0526466 -0.732976
upperneck 39.2583 0.556968 -1.43607
head 16.5233 -0.148102 -0.424979
rclavicle -1.15295e-014 -6.36111e-015
rhumerus -40.68 29.4061 -74.6808
rradius 94.6164
rwrist -19.7107
rhand -7.2381 -42.8162
rfingers 7.12502
rthumb 18.6418 -71.943
lclavicle -1.15295e-014 -6.36111e-015
lhumerus -25.976 -45.0899 70.3337
lradius 82.7593
lwrist 45.4536
lhand -20.236 -29.2984
lfingers 7.12502
lthumb 6.11199 0.593428
rfemur -65.5071 5.35156 14.6817
rtibia 35.0588
rfoot 38.6132 -1.38258
rtoes 8.84872
lfemur -41.9594 -1.64298 -27.2622
ltibia 52.1276
lfoot -22.124 6.92638
ltoes 12.4037
436
root 4.60235 16.3271 2.27552 14.8908 -8.89086 -2.47449
lowerback 7.19897 -0.726663 1.24921
upperback 1.50159 -0.879595 -0.188283
thorax -2.50674 -0.447357 -0.81434
lowerneck -14.6544 -0.0656935 -0.736845
upperneck 39.3423 0.577448 -1.50822
head 16.665 -0.151152 -0.454424
rclavicle -1.86858e-014 5.96354e-015
rhumerus -40.9797 29.4356 -74.7839
rradius 94.3823
rwrist -19.353
rhand -7.21884 -42.6915
rfingers 7.12502
rthumb 18.6603 -71.8165
lclavicle -1.86858e-014 5.96354e-015
lhumerus -26.2625 -45.2519 70.4845
lradius 82.5946
lwrist 45.304
lhand -20.8194 -29.1353
lfingers 7.12502
lthumb 5.54868 0.772033
rfemur -65.7005 5.36856 14.8409
rtibia 35.1372
rfoot 38.564 -1.21586
rtoes 8.61937
lfemur -42.2299 -1.78478 -27.0001
ltibia 52.3243
lfoot -22.1573 6.96905
ltoes 12.5933
437
root 4.60091 16.3148 2.2699 15.0356 -8.85106 -2.62867
lowerback 7.3598 -0.706127 1.36139
upperback 1.46603 -0.838378 -0.0897603
thorax -2.6321 -0.428303 -0.777544
lowerneck -14.8894 -0.070037 -0.700904
upperneck 39.5182 0.643325 -1.69713
head 16.8222 -0.146511 -0.536072
rclavicle 2.96189e-014 7.95139e-016
rhumerus -41.5576 29.5546 -74.9276
rradius 94.1961
rwrist -19.1075
rhand -7.40988 -42.5772
rfingers 7.12502
rthumb 18.4766 -71.7197
lclavicle 2.96189e-014 7.95139e-016
lhumerus -26.7827 -45.4607 70.8181
lradius 82.4531
lwrist 45.1714
lhand -21.1798 -29.1389
lfingers 7.12502
lthumb 5.2007 0.777318
rfemur -65.9209 5.4445 14.8972
rtibia 35.1981
rfoot 38.5818 -1.10402
rtoes 8.30081
lfemur -42.5097 -1.91711 -26.7867
ltibia 52.5423
lfoot -22.207 7.04029
ltoes 12.6617
438
root 4.59913 16.301 2.26891 15.1591 -8.88491 -2.59691
lowerback 7.39215 -0.653119 1.34538
upperback 1.42087 -0.768214 -0.0836464
thorax -2.69476 -0.393878 -0.768324
lowerneck -14.8553 -0.10165 -0.807444
upperneck 39.5818 0.599173 -1.61475
head 16.8471 -0.168744 -0.488573
rclavicle -1.39149e-015 2.0276e-014
rhumerus -42.2057 29.6139 -75.1017
rradius 94.0402
rwrist -18.8719
rhand -7.41483 -42.5369
rfingers 7.12502
rthumb 18.4718 -71.6798
lclavicle -1.39149e-015 2.0276e-014
lhumerus -27.1485 -45.8657 71.0675
lradius 82.2099
lwrist 45.1354
lhand -21.4435 -29.3366
lfingers 7.12502
lthumb 4.94614 0.585671
rfemur -66.1453 5.5079 14.7535
rtibia 35.2458
rfoot 38.6459 -1.30297
rtoes 8.56529
lfemur -42.7789 -2.0182 -26.7984
ltibia 52.7449
lfoot -22.2493 7.2065
ltoes 12.3646
439
root 4.59896 16.2956 2.26768 15.2958 -8.93408 -2.5396
lowerback 7.32461 -0.612185 1.32941
upperback 1.41033 -0.716932 -0.113438
thorax -2.667 -0.368242 -0.795608
lowerneck -14.7506 -0.119665 -0.927115
upperneck 39.5554 0.539776 -1.44091
head 16.8043 -0.185796 -0.399236
rclavicle -1.63003e-014 -9.14409e-015
rhumerus -42.7266 29.6448 -75.2788
rradius 93.911
rwrist -18.6907
rhand -7.44265 -42.234
rfingers 7.12502
rthumb 18.4451 -71.3795
lclavicle -1.63003e-014 -9.14409e-015
lhumerus -27.5656 -46.2638 71.3009
lradius 81.942
lwrist 45.0704
lhand -21.7255 -29.6538
lfingers 7.12502
lthumb 4.6738 0.274611
rfemur -66.3452 5.52392 14.6198
rtibia 35.2988
rfoot 38.6029 -1.43765
rtoes 9.08997
lfemur -43.0146 -2.06306 -26.8586
ltibia 52.8859
lfoot -22.3335 7.34409
ltoes 11.9633
